<svg xmlns="http://www.w3.org/2000/svg" width="204.62" height="172.326" viewBox="0 0 204.62 172.326">
  <defs>
    <style>
      .cls-1 {
        fill: #464646;
      }

      .cls-2 {
        fill: #a172c6;
      }
    </style>
  </defs>
  <g id="Group_47" data-name="Group 47" transform="translate(-1105.882 -240.174)">
    <g id="Group_23" data-name="Group 23" transform="translate(1105.882 240.174)">
      <g id="Livello_2" data-name="Livello 2" transform="translate(0 0)">
        <g id="Livello_1" data-name="Livello 1" transform="translate(0 0)">
          <g id="Group_11" data-name="Group 11">
            <path id="Path_22" data-name="Path 22" class="cls-1" d="M46.668,14.38H161.732A42.887,42.887,0,0,1,204.62,57.267V123.29a50.413,50.413,0,0,1-50.413,50.458H46.668A46.668,46.668,0,0,1,0,127.035V61.048A46.668,46.668,0,0,1,46.668,14.38Z" transform="translate(0 -1.423)"/>
            <path id="Path_23" data-name="Path 23" class="cls-1" d="M6.073,0H113.449a6.064,6.064,0,0,1,6.064,6.064h0A13.986,13.986,0,0,1,105.527,20.05H14A14,14,0,0,1,0,6.064H0A6.064,6.064,0,0,1,6.073,0Z" transform="translate(161.128 20.05) rotate(180)"/>
          </g>
        </g>
      </g>
    </g>
    <g id="Livello_2-2" data-name="Livello 2" transform="translate(1114.508 247.659)">
      <g id="Livello_1-2" data-name="Livello 1" transform="translate(0 0)">
        <g id="Group_13" data-name="Group 13" transform="translate(0 0)">
          <rect id="Rectangle_5" data-name="Rectangle 5" class="cls-2" width="187.367" height="44.972" transform="translate(0 61.196)"/>
          <path id="Path_24" data-name="Path 24" class="cls-2" d="M0,124.55H187.367A44.972,44.972,0,0,1,142.4,169.522H39.874A39.874,39.874,0,0,1,0,129.648v-5.1Z" transform="translate(0 -12.166)"/>
          <g id="Group_12" data-name="Group 12">
            <path id="Path_25" data-name="Path 25" class="cls-2" d="M.812,0H186.555a.812.812,0,0,1,.812.812h0A41.308,41.308,0,0,1,146.059,42.12H36.2A36.2,36.2,0,0,1,0,5.919V.812A.812.812,0,0,1,.812,0Z" transform="translate(187.367 54.988) rotate(180)"/>
            <path id="Path_26" data-name="Path 26" class="cls-2" d="M2.824,0h98.8a2.833,2.833,0,0,1,2.833,2.833V9.321A10.747,10.747,0,0,1,93.715,20.068H10.756A10.765,10.765,0,0,1,0,9.3V2.833A2.833,2.833,0,0,1,2.824,0Z" transform="translate(145.915 20.068) rotate(180)"/>
          </g>
        </g>
      </g>
    </g>
  </g>
</svg>
